<svg width="11" height="20" viewBox="0 0 11 20" fill="none" xmlns="http://www.w3.org/2000/svg">
<path d="M2.41512 9.99849L10.7068 18.2882C10.8945 18.4759 11 18.7305 11 18.996C11 19.2615 10.8945 19.5161 10.7068 19.7038C10.5191 19.8915 10.2645 19.997 9.99901 19.997C9.73354 19.997 9.47893 19.8915 9.29121 19.7038L0.293706 10.7063C0.200605 10.6134 0.12674 10.5031 0.0763414 10.3817C0.0259425 10.2602 0 10.13 0 9.99849C0 9.86699 0.0259425 9.73679 0.0763414 9.61533C0.12674 9.49387 0.200605 9.38355 0.293706 9.29069L9.29121 0.293182C9.47893 0.10546 9.73354 0 9.99901 0C10.2645 0 10.5191 0.10546 10.7068 0.293182C10.8945 0.480903 11 0.735508 11 1.00099C11 1.26646 10.8945 1.52107 10.7068 1.70879L2.41512 9.99849Z" fill="black"/>
</svg>
