<svg width="16" height="16" viewBox="0 0 16 16" fill="none" xmlns="http://www.w3.org/2000/svg">
<path d="M2.77388 3.05778C3.47383 2.3535 4.30635 1.79464 5.22345 1.41343C6.14054 1.03222 7.12407 0.836203 8.11733 0.836671C12.2975 0.836671 15.6738 4.22032 15.6738 8.39789C15.6738 12.5755 12.2975 15.9591 8.11733 15.9591C4.58971 15.9591 1.64844 13.549 0.80673 10.2882H2.77388C3.16346 11.3936 3.88669 12.3509 4.84379 13.028C5.80088 13.7052 6.94466 14.0689 8.11733 14.0688C11.2477 14.0688 13.7918 11.5264 13.7918 8.39789C13.7918 5.26944 11.2477 2.72698 8.11733 2.72698C6.5474 2.72698 5.1477 3.37913 4.12629 4.40935L7.17159 7.45274H0.551379V0.836671L2.77388 3.05778Z" fill="white"/>
</svg>
