<svg width="16" height="16" viewBox="0 0 16 16" fill="none" xmlns="http://www.w3.org/2000/svg">
<path opacity="0.8" d="M8 0C5.88619 0.0255025 3.86614 0.876545 2.37134 2.37134C0.876545 3.86614 0.0255025 5.88619 0 8C0.0255025 10.1138 0.876545 12.1339 2.37134 13.6287C3.86614 15.1235 5.88619 15.9745 8 16C10.1138 15.9745 12.1339 15.1235 13.6287 13.6287C15.1235 12.1339 15.9745 10.1138 16 8C15.9745 5.88619 15.1235 3.86614 13.6287 2.37134C12.1339 0.876545 10.1138 0.0255025 8 0ZM12.5714 8.57143H8.57143V12.5714H7.42857V8.57143H3.42857V7.42857H7.42857V3.42857H8.57143V7.42857H12.5714V8.57143Z" fill="white"/>
</svg>
