<svg width="20" height="11" viewBox="0 0 20 11" fill="none" xmlns="http://www.w3.org/2000/svg">
<path d="M9.99849 8.58488L18.2882 0.293181C18.4759 0.105459 18.7305 -8.18737e-07 18.996 -8.30341e-07C19.2615 -8.41946e-07 19.5161 0.105459 19.7038 0.293181C19.8915 0.480902 19.997 0.735506 19.997 1.00098C19.997 1.26646 19.8915 1.52107 19.7038 1.70879L10.7063 10.7063C10.6134 10.7994 10.5031 10.8733 10.3817 10.9237C10.2602 10.9741 10.13 11 9.99849 11C9.86699 11 9.73679 10.9741 9.61533 10.9237C9.49387 10.8733 9.38355 10.7994 9.29069 10.7063L0.293181 1.70879C0.10546 1.52107 -4.25466e-07 1.26646 -4.37071e-07 1.00099C-4.48675e-07 0.735507 0.10546 0.480903 0.293181 0.293181C0.480902 0.10546 0.735507 -3.21501e-08 1.00099 -4.37545e-08C1.26646 -5.53589e-08 1.52107 0.10546 1.70879 0.293181L9.99849 8.58488Z" fill="black"/>
</svg>
