<svg width="11" height="21" viewBox="0 0 11 21" fill="none" xmlns="http://www.w3.org/2000/svg">
<path d="M2.41512 10.0835L10.7068 18.3732C10.8945 18.5609 11 18.8155 11 19.081C11 19.3464 10.8945 19.601 10.7068 19.7888C10.5191 19.9765 10.2645 20.0819 9.99901 20.0819C9.73354 20.0819 9.47893 19.9765 9.29121 19.7888L0.293706 10.7913C0.200605 10.6984 0.12674 10.5881 0.0763414 10.4666C0.0259425 10.3452 0 10.215 0 10.0835C0 9.95195 0.0259425 9.82175 0.0763414 9.70029C0.12674 9.57884 0.200605 9.46851 0.293706 9.37565L9.29121 0.378143C9.47893 0.190421 9.73354 0.0849609 9.99901 0.0849609C10.2645 0.0849609 10.5191 0.190421 10.7068 0.378143C10.8945 0.565864 11 0.820469 11 1.08595C11 1.35142 10.8945 1.60603 10.7068 1.79375L2.41512 10.0835Z" fill="white"/>
</svg>
